<svg width="21" height="19" viewBox="0 0 21 19" fill="none" xmlns="http://www.w3.org/2000/svg">
<path d="M18.7211 2.25963L18.7212 2.2598C19.2858 2.81298 19.7331 3.46927 20.0381 4.19092C20.3431 4.91254 20.5 5.68566 20.5 6.46619C20.5 7.24672 20.3431 8.01984 20.0381 8.74146C19.7331 9.46311 19.2858 10.1194 18.7212 10.6726L18.7211 10.6727L10.9025 18.3386L10.901 18.34C10.8504 18.3901 10.7896 18.4303 10.7219 18.458C10.6543 18.4856 10.5813 18.5 10.5074 18.5C10.4335 18.5 10.3606 18.4856 10.2929 18.458C10.2252 18.4303 10.1644 18.3901 10.1138 18.34L10.1123 18.3386L2.29369 10.6727L2.29243 10.6715C1.20227 9.61007 0.564521 8.18504 0.504635 6.68397C0.444751 5.18294 0.966997 3.71385 1.96883 2.5727C2.97092 1.43124 4.37881 0.702535 5.90999 0.536292C7.44124 0.370042 8.9788 0.779055 10.2128 1.67897L10.5064 1.8931L10.8007 1.6799C11.9721 0.831375 13.4167 0.422332 14.8716 0.528969C16.3264 0.635602 17.6922 1.25058 18.7211 2.25963Z" stroke="#1C3988"/>
</svg>
