<svg width="98" height="88" viewBox="0 0 98 88" fill="none" xmlns="http://www.w3.org/2000/svg">
<path d="M72.75 12V9.25C72.7437 7.06392 71.8724 4.96918 70.3266 3.42338C68.7808 1.87758 66.6861 1.00635 64.5 1H9.5C7.31392 1.00635 5.21918 1.87758 3.67338 3.42338C2.12758 4.96918 1.25635 7.06392 1.25 9.25V53.25C1.25635 55.4361 2.12758 57.5308 3.67338 59.0766C5.21918 60.6224 7.31392 61.4937 9.5 61.5H12.25" stroke="black" stroke-linejoin="round"/>
<path d="M62.5952 35.7521C65.516 35.7521 67.8838 33.4012 67.8838 30.5013C67.8838 27.6013 65.516 25.2505 62.5952 25.2505C59.6744 25.2505 57.3066 27.6013 57.3066 30.5013C57.3066 33.4012 59.6744 35.7521 62.5952 35.7521Z" stroke="black" stroke-miterlimit="10"/>
<path d="M57.307 56.7159L42.3281 41.8676C41.3706 40.9216 40.0898 40.374 38.7443 40.3354C37.3987 40.2968 36.0886 40.77 35.0784 41.6597L15 59.3748" stroke="black" stroke-linecap="round" stroke-linejoin="round"/>
<path d="M44.0869 72.5004L64.4696 52.2655C65.4075 51.3405 66.6548 50.7957 67.9708 50.7364C69.2868 50.677 70.5781 51.1073 71.5955 51.9441L79.7504 58.6911" stroke="black" stroke-linecap="round" stroke-linejoin="round"/>
<path d="M76.5625 72.2587L82.5 66.3672L88.4375 72.2587" stroke="black" stroke-linecap="round" stroke-linejoin="round"/>
<path d="M82.5 67.1858V79.1328" stroke="black" stroke-linecap="round" stroke-linejoin="round"/>
<path d="M83.75 58V22.6545C83.75 18.289 80.211 14.75 75.8455 14.75H22.9045C18.539 14.75 15 18.289 15 22.6545V64.5955C15 68.961 18.539 72.5 22.9045 72.5H68.25" stroke="black" stroke-linejoin="round"/>
<path d="M96.75 72.75C96.75 64.8828 90.3672 58.5 82.5 58.5C74.6328 58.5 68.25 64.8828 68.25 72.75C68.25 80.6172 74.6328 87 82.5 87C90.3672 87 96.75 80.6172 96.75 72.75Z" stroke="black" stroke-miterlimit="10"/>
</svg>
